{"title":"Training Days with the Oklahoma Sooners.avi","uid":6636824,"size":429624264,"categoryP":"video","categoryS":"other","magnet":"?xt=urn:btih:54cc5b61c3ec8e73fe90361e8e19424f54175f92&amp;dn=Training+Days+with+the+Oklahoma+Sooners.avi&amp;tr=udp%3A%2F%2Ftracker.openbittorrent.com%3A80&amp;tr=udp%3A%2F%2Fopen.demonii.com%3A1337&amp;tr=udp%3A%2F%2Ftracker.coppersurfer.tk%3A6969&amp;tr=udp%3A%2F%2Fexodus.desync.com%3A6969","seeders":0,"leechers":1,"uploader":null,"files":1,"time":1314596873,"description":"Format                           : AVI\nFormat/Info                      : Audio Video Interleave\nFile size                        : 410 MiB\nDuration                         : 47mn 31s\nOverall bit rate                 : 1 205 Kbps\n\nVideo\nID                               : 0\nFormat                           : MPEG-4 Visual\nFormat profile                   : Advanced Simple@L5\nFormat settings, BVOP            : 1\nFormat settings, QPel            : No\nFormat settings, GMC             : No warppoints\nFormat settings, Matrix          : Default (H.263)\nMuxing mode                      : Packed bitstream\nCodec ID                         : XVID\nCodec ID/Hint                    : XviD\nDuration                         : 47mn 31s\nBit rate                         : 1 083 Kbps\nWidth                            : 624 pixels\nHeight                           : 320 pixels\nDisplay aspect ratio             : 1.950\nFrame rate                       : 23.976 fps\nColor space                      : YUV\nChroma subsampling               : 4:2:0\nBit depth                        : 8 bits\nScan type                        : Progressive\nCompression mode                 : Lossy\nBits/(Pixel*Frame)               : 0.226\nStream size                      : 368 MiB (90%)\nWriting library                  : XviD 1.2.1 (UTC 2008-12-04)\n\nAudio\nID                               : 1\nFormat                           : MPEG Audio\nFormat version                   : Version 1\nFormat profile                   : Layer 3\nMode                             : Joint stereo\nMode extension                   : MS Stereo\nCodec ID                         : 55\nCodec ID/Hint                    : MP3\nDuration                         : 47mn 31s\nBit rate mode                    : Variable\nBit rate                         : 109 Kbps\nNominal bit rate                 : 128 Kbps\nChannel(s)                       : 2 channels\nSampling rate                    : 48.0 KHz\nCompression mode                 : Lossy\nStream size                      : 37.0 MiB (9%)\nAlignment                        : Aligned on interleaves\nInterleave, duration             : 24 ms (0.58 video frame)\nInterleave, preload duration     : 200 ms\nTitle                            : Training Days with the Oklahoma Sooners Tc0 L2 2ch 48 256 DELAY 0ms\nWriting library                  : LAME3.98r\nEncoding settings                : -m j -V 4 -q 2 -lowpass 17 --abr 128","torrent":{"xt":"urn:btih:54cc5b61c3ec8e73fe90361e8e19424f54175f92","amp;dn":"Training+Days+with+the+Oklahoma+Sooners.avi","amp;tr":["udp%3A%2F%2Ftracker.openbittorrent.com%3A80","udp%3A%2F%2Fopen.demonii.com%3A1337","udp%3A%2F%2Ftracker.coppersurfer.tk%3A6969","udp%3A%2F%2Fexodus.desync.com%3A6969"],"infoHash":"54cc5b61c3ec8e73fe90361e8e19424f54175f92","infoHashBuffer":{"type":"Buffer","data":[84,204,91,97,195,236,142,115,254,144,54,30,142,25,66,79,84,23,95,146]},"announce":[],"urlList":[]}}